<?xml version="1.0" encoding="UTF-8"?>
<svg version="1.1" xmlns="http://www.w3.org/2000/svg" width="64" height="64">
<path d="M0 0 C17.16 0 34.32 0 52 0 C52 7.26 52 14.52 52 22 C50.45049732 23.54950268 48.90009406 23.21655193 46.74609375 23.31640625 C45.89208984 23.35830078 45.03808594 23.40019531 44.15820312 23.44335938 C42.81145508 23.50233398 42.81145508 23.50233398 41.4375 23.5625 C40.53580078 23.60568359 39.63410156 23.64886719 38.70507812 23.69335938 C36.47021515 23.79978142 34.23523692 23.90179988 32 24 C33.32 24.33 34.64 24.66 36 25 C36 25.99 36 26.98 36 28 C35.20335937 27.91621094 34.40671875 27.83242188 33.5859375 27.74609375 C28.17440714 27.2260075 23.35224511 26.79574485 18 28 C16.68 28 15.36 28 14 28 C14.33 27.01 14.66 26.02 15 25 C15.99 24.67 16.98 24.34 18 24 C16.78441406 23.93941406 15.56882812 23.87882812 14.31640625 23.81640625 C12.73175772 23.73201668 11.14712298 23.6473679 9.5625 23.5625 C8.76005859 23.52318359 7.95761719 23.48386719 7.13085938 23.44335938 C1.11328125 23.11328125 1.11328125 23.11328125 0 22 C0 14.74 0 7.48 0 0 Z " fill="#F1F4F3" transform="translate(6,18)"/>
<path d="M0 0 C17.16 0 34.32 0 52 0 C52 7.26 52 14.52 52 22 C50.45049732 23.54950268 48.90009406 23.21655193 46.74609375 23.31640625 C45.89208984 23.35830078 45.03808594 23.40019531 44.15820312 23.44335938 C42.81145508 23.50233398 42.81145508 23.50233398 41.4375 23.5625 C40.53580078 23.60568359 39.63410156 23.64886719 38.70507812 23.69335938 C36.47021515 23.79978142 34.23523692 23.90179988 32 24 C33.32 24.33 34.64 24.66 36 25 C36 25.99 36 26.98 36 28 C35.20335937 27.91621094 34.40671875 27.83242188 33.5859375 27.74609375 C28.17440714 27.2260075 23.35224511 26.79574485 18 28 C16.68 28 15.36 28 14 28 C14.33 27.01 14.66 26.02 15 25 C15.99 24.67 16.98 24.34 18 24 C16.78441406 23.93941406 15.56882812 23.87882812 14.31640625 23.81640625 C12.73175772 23.73201668 11.14712298 23.6473679 9.5625 23.5625 C8.76005859 23.52318359 7.95761719 23.48386719 7.13085938 23.44335938 C1.11328125 23.11328125 1.11328125 23.11328125 0 22 C0 14.74 0 7.48 0 0 Z M2 2 C2 8.27 2 14.54 2 21 C8.81762424 21.02464247 15.6352228 21.04283244 22.45288086 21.05493164 C24.77417451 21.05997333 27.09546497 21.06680651 29.41674805 21.07543945 C32.74528795 21.08751225 36.07378602 21.09322979 39.40234375 21.09765625 C40.96951393 21.10539818 40.96951393 21.10539818 42.56834412 21.11329651 C44.00972496 21.11340981 44.00972496 21.11340981 45.48022461 21.11352539 C46.33071884 21.115746 47.18121307 21.11796661 48.05747986 21.12025452 C50.00588545 21.21480284 50.00588545 21.21480284 51 20 C51.09986975 17.15664952 51.13877881 14.34302837 51.125 11.5 C51.12886719 10.70207031 51.13273437 9.90414063 51.13671875 9.08203125 C51.5089961 5.2316068 51.5089961 5.2316068 50 2 C48.49581261 1.90688111 46.98728644 1.88253972 45.48022461 1.88647461 C44.51930405 1.88655014 43.55838348 1.88662567 42.56834412 1.88670349 C41.00117393 1.89444542 41.00117393 1.89444542 39.40234375 1.90234375 C38.33834854 1.9037587 37.27435333 1.90517365 36.17811584 1.90663147 C32.76454917 1.91224936 29.351047 1.92480489 25.9375 1.9375 C23.62955824 1.94251269 21.32161545 1.947076 19.01367188 1.95117188 C13.34242289 1.96222461 7.6712224 1.97950123 2 2 Z " fill="#3F6980" transform="translate(6,18)"/>
<path d="M0 0 C2.475 0.99 2.475 0.99 5 2 C5 1.34 5 0.68 5 0 C6.32 0.33 7.64 0.66 9 1 C9 1.66 9 2.32 9 3 C9.33 2.34 9.66 1.68 10 1 C10.88751953 1.01740234 10.88751953 1.01740234 11.79296875 1.03515625 C16.04117852 1.08366762 19.83156015 0.88421451 24 0 C24.66 0.33 25.32 0.66 26 1 C27.92297224 0.86403146 27.92297224 0.86403146 30 0.5 C33.77777778 -0.11111111 33.77777778 -0.11111111 36 1 C35.67 2.32 35.34 3.64 35 5 C33.86820313 4.96519531 32.73640625 4.93039063 31.5703125 4.89453125 C30.08855647 4.86639664 28.60678444 4.83909613 27.125 4.8125 C26.37863281 4.78736328 25.63226563 4.76222656 24.86328125 4.73632812 C22.43778172 4.6701236 22.43778172 4.6701236 19 5 C18.01 6.485 18.01 6.485 17 8 C23.27 8 29.54 8 36 8 C33 12 33 12 30.8125 12.75 C29.9153125 12.87375 29.9153125 12.87375 29 13 C29 12.34 29 11.68 29 11 C27.865625 11.495 26.73125 11.99 25.5625 12.5 C21.14013567 14.15248489 16.68206887 14.94195468 12 14 C10.390625 12.5 10.390625 12.5 9 11 C8.195625 10.87625 7.39125 10.7525 6.5625 10.625 C2.98252175 9.75183457 1.97358044 8.03085568 0 5 C-0.8125 2.75 -0.8125 2.75 -1 1 C-0.67 0.67 -0.34 0.34 0 0 Z " fill="#F5FAEF" transform="translate(10,24)"/>
<path d="M0 0 C0.33 0 0.66 0 1 0 C1.02684312 2.81256281 1.04676188 5.62487241 1.0625 8.4375 C1.07087891 9.23994141 1.07925781 10.04238281 1.08789062 10.86914062 C1.0965143 12.91295221 1.0522815 14.95683902 1 17 C0 18 0 18 -1.94252014 18.12025452 C-2.79301437 18.11803391 -3.64350861 18.11581329 -4.51977539 18.11352539 C-5.96115623 18.11341209 -5.96115623 18.11341209 -7.43165588 18.11329651 C-8.476436 18.10813522 -9.52121613 18.10297394 -10.59765625 18.09765625 C-11.66165146 18.0962413 -12.72564667 18.09482635 -13.82188416 18.09336853 C-17.23545083 18.08775064 -20.648953 18.07519511 -24.0625 18.0625 C-26.37044176 18.05748731 -28.67838455 18.052924 -30.98632812 18.04882812 C-36.65757426 18.0377754 -42.32878253 18.02101987 -48 18 C-48 17.67 -48 17.34 -48 17 C-39.42 16.67 -30.84 16.34 -22 16 C-21.67 15.34 -21.34 14.68 -21 14 C-19.68 14 -18.36 14 -17 14 C-17 14.66 -17 15.32 -17 16 C-16.01 16 -15.02 16 -14 16 C-13.67 15.34 -13.34 14.68 -13 14 C-12.34 13.34 -11.68 12.68 -11 12 C-12.62490954 11.97301811 -14.24994633 11.95361243 -15.875 11.9375 C-16.77992187 11.92589844 -17.68484375 11.91429687 -18.6171875 11.90234375 C-21.0168585 11.83750743 -21.0168585 11.83750743 -23 13 C-23 12.34 -23 11.68 -23 11 C-24.98 11 -26.96 11 -29 11 C-28.34 9.35 -27.68 7.7 -27 6 C-26.67 6.66 -26.34 7.32 -26 8 C-25.195625 7.835 -24.39125 7.67 -23.5625 7.5 C-19.34112648 6.90752652 -15.25335455 6.91493291 -11 7 C-10.67 5.35 -10.34 3.7 -10 2 C-6.66272214 3.17255709 -4.22562513 4.18868404 -2 7 C-2 7.66 -2 8.32 -2 9 C-1.34 9 -0.68 9 0 9 C0 6.03 0 3.06 0 0 Z " fill="#EBF1EB" transform="translate(56,21)"/>
<path d="M0 0 C1.32 0.33 2.64 0.66 4 1 C4 1.66 4 2.32 4 3 C4.33 2.34 4.66 1.68 5 1 C5.88751953 1.01740234 5.88751953 1.01740234 6.79296875 1.03515625 C11.04117852 1.08366762 14.83156015 0.88421451 19 0 C19.66 0.33 20.32 0.66 21 1 C22.92297224 0.86403146 22.92297224 0.86403146 25 0.5 C28.77777778 -0.11111111 28.77777778 -0.11111111 31 1 C30.67 2.32 30.34 3.64 30 5 C28.31970703 4.98259766 28.31970703 4.98259766 26.60546875 4.96484375 C25.13281417 4.95546378 23.66015778 4.9463638 22.1875 4.9375 C21.44951172 4.92912109 20.71152344 4.92074219 19.95117188 4.91210938 C16.70077932 4.89740172 14.10595105 4.96468298 11 6 C9.10047654 5.91478259 7.20336427 5.76270916 5.3125 5.5625 C4.31863281 5.46066406 3.32476563 5.35882812 2.30078125 5.25390625 C1.54152344 5.17011719 0.78226563 5.08632813 0 5 C0 3.35 0 1.7 0 0 Z " fill="#90A3C6" transform="translate(15,24)"/>
<path d="M0 0 C5.61 0 11.22 0 17 0 C17.02682987 3.64588169 17.04675569 7.29156846 17.0625 10.9375 C17.07087891 11.97841797 17.07925781 13.01933594 17.08789062 14.09179688 C17.09272461 15.57583008 17.09272461 15.57583008 17.09765625 17.08984375 C17.10551147 18.46450806 17.10551147 18.46450806 17.11352539 19.86694336 C17 22 17 22 16 23 C12.0690826 23.25342896 8.12561567 23.18523019 4.1875 23.1875 C3.08083984 23.19974609 1.97417969 23.21199219 0.83398438 23.22460938 C-0.23142578 23.22654297 -1.29683594 23.22847656 -2.39453125 23.23046875 C-3.37268799 23.23457764 -4.35084473 23.23868652 -5.35864258 23.24291992 C-8 23 -8 23 -12 21 C-3.09 20.67 5.82 20.34 15 20 C15 14.39 15 8.78 15 3 C10.05 2.67 5.1 2.34 0 2 C0 1.34 0 0.68 0 0 Z " fill="#70A553" transform="translate(41,18)"/>
<path d="M0 0 C3 3 3 3 4.875 5.6875 C6.76650962 8.28934424 6.76650962 8.28934424 9.5625 8.125 C10.366875 8.08375 11.17125 8.0425 12 8 C13.8125 9.5 13.8125 9.5 15 11 C14 12 14 12 10.83984375 12.09765625 C8.90818359 12.08025391 8.90818359 12.08025391 6.9375 12.0625 C5.64714844 12.05347656 4.35679688 12.04445313 3.02734375 12.03515625 C2.02832031 12.02355469 1.02929688 12.01195312 0 12 C0 8.04 0 4.08 0 0 Z " fill="#F9FCF6" transform="translate(8,26)"/>
<path d="M0 0 C1.32 0 2.64 0 4 0 C4 0.66 4 1.32 4 2 C6.97 2.33 9.94 2.66 13 3 C13 3.99 13 4.98 13 6 C12.20335938 5.91621094 11.40671875 5.83242188 10.5859375 5.74609375 C5.17440714 5.2260075 0.35224511 4.79574485 -5 6 C-6.32 6 -7.64 6 -9 6 C-8.67 5.01 -8.34 4.02 -8 3 C-5.36 2.67 -2.72 2.34 0 2 C0 1.34 0 0.68 0 0 Z " fill="#1B4489" transform="translate(29,40)"/>
<path d="M0 0 C5.94 0 11.88 0 18 0 C15 4 15 4 12.8125 4.75 C12.214375 4.8325 11.61625 4.915 11 5 C11 4.34 11 3.68 11 3 C9.4221875 3.2475 9.4221875 3.2475 7.8125 3.5 C4.79531204 3.89569678 2.02906028 4.09178971 -1 4 C-0.67 2.68 -0.34 1.36 0 0 Z " fill="#C7E3A1" transform="translate(28,32)"/>
<path d="M0 0 C1 3 1 3 0 6 C1.32 6 2.64 6 4 6 C4.33 5.34 4.66 4.68 5 4 C5 4.66 5 5.32 5 6 C5.66 6.33 6.32 6.66 7 7 C2.97621356 8.34126215 -0.79794988 8.7199043 -5 8 C-7.10361696 5.5776532 -8 4.21754366 -8 1 C-7.34 1 -6.68 1 -6 1 C-5.67 1.66 -5.34 2.32 -5 3 C-4.54625 2.505 -4.0925 2.01 -3.625 1.5 C-2 0 -2 0 0 0 Z " fill="#DEEEC9" transform="translate(27,30)"/>
<path d="M0 0 C1.32 0.33 2.64 0.66 4 1 C4 1.66 4 2.32 4 3 C4.33 2.34 4.66 1.68 5 1 C7.31 1 9.62 1 12 1 C11.67 2.32 11.34 3.64 11 5 C7.37 5 3.74 5 0 5 C0 3.35 0 1.7 0 0 Z " fill="#8DA1C4" transform="translate(15,24)"/>
<path d="M0 0 C0.33 0 0.66 0 1 0 C1.02888514 3.14581423 1.04675923 6.29159469 1.0625 9.4375 C1.07087891 10.33533203 1.07925781 11.23316406 1.08789062 12.15820312 C1.09111328 13.01220703 1.09433594 13.86621094 1.09765625 14.74609375 C1.10289307 15.53685303 1.10812988 16.3276123 1.11352539 17.14233398 C1 19 1 19 0 20 C-2.33297433 20.04092937 -4.66705225 20.04241723 -7 20 C-7.33 19.34 -7.66 18.68 -8 18 C-4.535 17.505 -4.535 17.505 -1 17 C-0.67 11.39 -0.34 5.78 0 0 Z " fill="#87C041" transform="translate(57,21)"/>
<path d="M0 0 C2.31 0 4.62 0 7 0 C7 0.66 7 1.32 7 2 C7.66 2 8.32 2 9 2 C9 2.66 9 3.32 9 4 C5.7 4 2.4 4 -1 4 C-0.67 2.68 -0.34 1.36 0 0 Z " fill="#BEDE91" transform="translate(28,32)"/>
<path d="M0 0 C3.80881639 1.44472346 5.29742886 3.32603071 7 7 C6.67 7.99 6.34 8.98 6 10 C4.0625 9.375 4.0625 9.375 2 8 C1.3125 5 1.3125 5 1 2 C0.67 1.34 0.34 0.68 0 0 Z " fill="#395B99" transform="translate(48,24)"/>
<path d="M0 0 C1.32 0.66 2.64 1.32 4 2 C3.95875 2.763125 3.9175 3.52625 3.875 4.3125 C3.77919176 7.22718416 3.77919176 7.22718416 6 10 C2.19118361 8.55527654 0.70257114 6.67396929 -1 3 C-0.67 2.01 -0.34 1.02 0 0 Z " fill="#9ACD55" transform="translate(10,24)"/>
<path d="M0 0 C0.8353125 0.556875 0.8353125 0.556875 1.6875 1.125 C-0.70759338 4.02432357 -2.62495243 4.62668276 -6.3125 5.125 C-6.6425 3.805 -6.9725 2.485 -7.3125 1.125 C-2.88173077 -1.09038462 -2.88173077 -1.09038462 0 0 Z " fill="#A5B5D1" transform="translate(32.3125,24.875)"/>
</svg>
