<?xml version="1.0" encoding="UTF-8"?>
<svg version="1.1" xmlns="http://www.w3.org/2000/svg" width="32" height="32">
<path d="M0 0 C1.1653125 -0.00128906 2.330625 -0.00257812 3.53125 -0.00390625 C4.7584375 -0.00003906 5.985625 0.00382813 7.25 0.0078125 C9.09078125 0.00201172 9.09078125 0.00201172 10.96875 -0.00390625 C12.71671875 -0.00197266 12.71671875 -0.00197266 14.5 0 C15.57765625 0.00112793 16.6553125 0.00225586 17.765625 0.00341797 C20.25 0.1328125 20.25 0.1328125 21.25 1.1328125 C21.34823937 2.79710301 21.37973631 4.46563181 21.375 6.1328125 C21.37886719 7.4940625 21.37886719 7.4940625 21.3828125 8.8828125 C21.25 11.1328125 21.25 11.1328125 20.25 12.1328125 C17.57941149 12.27396411 14.92567762 12.17528357 12.25 12.1328125 C12.25 12.7928125 12.25 13.4528125 12.25 14.1328125 C8.62 14.1328125 4.99 14.1328125 1.25 14.1328125 C1.25 13.4728125 1.25 12.8128125 1.25 12.1328125 C-0.4515625 12.16375 -0.4515625 12.16375 -2.1875 12.1953125 C-5.75 12.1328125 -5.75 12.1328125 -6.75 11.1328125 C-6.84823937 9.46852199 -6.87973631 7.79999319 -6.875 6.1328125 C-6.87757812 5.2253125 -6.88015625 4.3178125 -6.8828125 3.3828125 C-6.62013627 -1.06723193 -3.83798201 0.00401703 0 0 Z " fill="#F3F6F3" transform="translate(8.75,8.8671875)"/>
<path d="M0 0 C1.1653125 -0.00128906 2.330625 -0.00257812 3.53125 -0.00390625 C4.7584375 -0.00003906 5.985625 0.00382813 7.25 0.0078125 C9.09078125 0.00201172 9.09078125 0.00201172 10.96875 -0.00390625 C12.71671875 -0.00197266 12.71671875 -0.00197266 14.5 0 C15.57765625 0.00112793 16.6553125 0.00225586 17.765625 0.00341797 C20.25 0.1328125 20.25 0.1328125 21.25 1.1328125 C21.34823937 2.79710301 21.37973631 4.46563181 21.375 6.1328125 C21.37886719 7.4940625 21.37886719 7.4940625 21.3828125 8.8828125 C21.25 11.1328125 21.25 11.1328125 20.25 12.1328125 C17.57941149 12.27396411 14.92567762 12.17528357 12.25 12.1328125 C12.25 12.7928125 12.25 13.4528125 12.25 14.1328125 C8.62 14.1328125 4.99 14.1328125 1.25 14.1328125 C1.25 13.4728125 1.25 12.8128125 1.25 12.1328125 C-0.4515625 12.16375 -0.4515625 12.16375 -2.1875 12.1953125 C-5.75 12.1328125 -5.75 12.1328125 -6.75 11.1328125 C-6.84823937 9.46852199 -6.87973631 7.79999319 -6.875 6.1328125 C-6.87757812 5.2253125 -6.88015625 4.3178125 -6.8828125 3.3828125 C-6.62013627 -1.06723193 -3.83798201 0.00401703 0 0 Z M-4.75 1.1328125 C-4.75 4.1028125 -4.75 7.0728125 -4.75 10.1328125 C3.17 10.1328125 11.09 10.1328125 19.25 10.1328125 C19.25 9.4728125 19.25 8.8128125 19.25 8.1328125 C18.26 8.1328125 17.27 8.1328125 16.25 8.1328125 C16.25 6.8128125 16.25 5.4928125 16.25 4.1328125 C15.61191406 4.1328125 14.97382813 4.1328125 14.31640625 4.1328125 C11.62760417 4.1328125 8.93880208 4.1328125 6.25 4.1328125 C11.695 3.6378125 11.695 3.6378125 17.25 3.1328125 C17.58 4.1228125 17.91 5.1128125 18.25 6.1328125 C18.58 6.1328125 18.91 6.1328125 19.25 6.1328125 C19.25 4.4828125 19.25 2.8328125 19.25 1.1328125 C11.33 1.1328125 3.41 1.1328125 -4.75 1.1328125 Z " fill="#83A78C" transform="translate(8.75,8.8671875)"/>
<path d="M0 0 C3.3 0 6.6 0 10 0 C9.34 1.32 8.68 2.64 8 4 C11.3 4 14.6 4 18 4 C17.67 4.66 17.34 5.32 17 6 C13.04 6 9.08 6 5 6 C5 5.34 5 4.68 5 4 C2.9254644 3.8509288 2.9254644 3.8509288 1 5 C0.67 3.35 0.34 1.7 0 0 Z " fill="#CFE7AF" transform="translate(5,12)"/>
<path d="M0 0 C0.33 0 0.66 0 1 0 C1.33 2.97 1.66 5.94 2 9 C3.33804687 9.09087891 3.33804687 9.09087891 4.703125 9.18359375 C5.87359375 9.26738281 7.0440625 9.35117187 8.25 9.4375 C9.41015625 9.51871094 10.5703125 9.59992187 11.765625 9.68359375 C14.30977376 9.93247787 16.55953248 10.28114942 19 11 C19 11.66 19 12.32 19 13 C15.37 13 11.74 13 8 13 C8 12.34 8 11.68 8 11 C6.2984375 11.0309375 6.2984375 11.0309375 4.5625 11.0625 C1 11 1 11 0 10 C-0.07205511 8.31391034 -0.08386068 6.62499341 -0.0625 4.9375 C-0.05347656 4.01839844 -0.04445312 3.09929688 -0.03515625 2.15234375 C-0.02355469 1.44207031 -0.01195313 0.73179688 0 0 Z " fill="#143776" transform="translate(2,10)"/>
<path d="M0 0 C7.92 0 15.84 0 24 0 C24 1.65 24 3.3 24 5 C23.34 4.67 22.68 4.34 22 4 C22 3.34 22 2.68 22 2 C14.74 1.67 7.48 1.34 0 1 C0 0.67 0 0.34 0 0 Z " fill="#E1E9E5" transform="translate(4,10)"/>
<path d="M0 0 C3.3 0 6.6 0 10 0 C9.01 1.485 9.01 1.485 8 3 C5.375 3.1875 5.375 3.1875 3 3 C3 3.66 3 4.32 3 5 C2.34 5 1.68 5 1 5 C0.67 3.35 0.34 1.7 0 0 Z " fill="#BFD3BF" transform="translate(5,12)"/>
</svg>
